G04 EAGLE Gerber RS-274X export*
G75*
%MOMM*%
%FSLAX34Y34*%
%LPD*%
%IN*%
%IPPOS*%
%AMOC8*
5,1,8,0,0,1.08239X$1,22.5*%
G01*
%ADD10C,0.254000*%


D10*
X0Y43360D02*
X165Y39581D01*
X659Y35831D01*
X1477Y32138D01*
X2615Y28530D01*
X4063Y25036D01*
X5809Y21680D01*
X7842Y18490D01*
X10144Y15489D01*
X12700Y12700D01*
X15489Y10144D01*
X18490Y7842D01*
X21680Y5809D01*
X25036Y4063D01*
X28530Y2615D01*
X32138Y1477D01*
X35831Y659D01*
X39581Y165D01*
X43360Y0D01*
X515440Y0D01*
X519219Y165D01*
X522969Y659D01*
X526662Y1477D01*
X530270Y2615D01*
X533764Y4063D01*
X537120Y5809D01*
X540310Y7842D01*
X543311Y10144D01*
X546100Y12700D01*
X548656Y15489D01*
X550958Y18490D01*
X552991Y21680D01*
X554737Y25036D01*
X556185Y28530D01*
X557323Y32138D01*
X558141Y35831D01*
X558635Y39581D01*
X558800Y43360D01*
X558925Y46223D01*
X559299Y49063D01*
X559919Y51860D01*
X560780Y54592D01*
X561877Y57239D01*
X563200Y59780D01*
X564739Y62196D01*
X566483Y64469D01*
X568419Y66582D01*
X570531Y68517D01*
X572804Y70261D01*
X575220Y71800D01*
X577761Y73123D01*
X580408Y74220D01*
X583140Y75081D01*
X585937Y75701D01*
X588777Y76075D01*
X591640Y76200D01*
X637862Y76200D01*
X640159Y76300D01*
X642438Y76600D01*
X644682Y77098D01*
X646874Y77789D01*
X648997Y78669D01*
X651036Y79730D01*
X652975Y80965D01*
X654798Y82364D01*
X656493Y83917D01*
X658046Y85612D01*
X659445Y87435D01*
X660680Y89374D01*
X661741Y91413D01*
X662621Y93536D01*
X663312Y95728D01*
X663810Y97972D01*
X664110Y100251D01*
X664210Y102548D01*
X664210Y456252D01*
X664110Y458549D01*
X663810Y460828D01*
X663312Y463072D01*
X662621Y465264D01*
X661741Y467387D01*
X660680Y469426D01*
X659445Y471365D01*
X658046Y473188D01*
X656493Y474883D01*
X654798Y476436D01*
X652975Y477835D01*
X651036Y479070D01*
X648997Y480131D01*
X646874Y481011D01*
X644682Y481702D01*
X642438Y482200D01*
X640159Y482500D01*
X637862Y482600D01*
X591640Y482600D01*
X588777Y482725D01*
X585937Y483099D01*
X583140Y483719D01*
X580408Y484580D01*
X577761Y485677D01*
X575220Y487000D01*
X572804Y488539D01*
X570531Y490283D01*
X568419Y492219D01*
X566483Y494331D01*
X564739Y496604D01*
X563200Y499020D01*
X561877Y501561D01*
X560780Y504208D01*
X559919Y506940D01*
X559299Y509737D01*
X558925Y512577D01*
X558800Y515440D01*
X558635Y519219D01*
X558141Y522969D01*
X557323Y526662D01*
X556185Y530270D01*
X554737Y533764D01*
X552991Y537120D01*
X550958Y540310D01*
X548656Y543311D01*
X546100Y546100D01*
X543311Y548656D01*
X540310Y550958D01*
X537120Y552991D01*
X533764Y554737D01*
X530270Y556185D01*
X526662Y557323D01*
X522969Y558141D01*
X519219Y558635D01*
X515440Y558800D01*
X43360Y558800D01*
X39581Y558635D01*
X35831Y558141D01*
X32138Y557323D01*
X28530Y556185D01*
X25036Y554737D01*
X21680Y552991D01*
X18490Y550958D01*
X15489Y548656D01*
X12700Y546100D01*
X10144Y543311D01*
X7842Y540310D01*
X5809Y537120D01*
X4063Y533764D01*
X2615Y530270D01*
X1477Y526662D01*
X659Y522969D01*
X165Y519219D01*
X0Y515440D01*
X0Y43360D01*
M02*
