M48
;GenerationSoftware,Autodesk,EAGLE,9.4.0*%
;CreationDate,2019-05-02T20:46:46Z*%
FMAT,2
ICI,OFF
METRIC,TZ,000.000
T7C0.350
T6C0.800
T5C0.813
T4C0.900
T3C1.000
T2C1.016
T1C3.200
%
G90
M71
T1
X5588Y4953
X5588Y51181
X50800Y4953
X50800Y51181
T2
X31750Y34290
X31750Y16510
X29210Y16510
X33020Y38227
X30226Y38227
X35687Y40894
X26670Y16510
X24130Y16510
X21590Y16510
X19050Y16510
X3810Y34290
X16510Y16510
X13970Y16510
X11430Y16510
X8890Y16510
X6350Y16510
X3810Y16510
X26670Y4699
X26670Y7493
X11811Y7493
X29210Y26924
X29210Y24130
X24690Y46395
X24690Y48895
X24690Y51395
X11811Y4699
X29210Y34290
X45847Y40894
X48387Y40894
X40767Y40894
X43307Y40894
X5080Y44450
X7620Y44450
X38227Y40894
X26670Y34290
X24130Y34290
X21590Y34290
X19050Y34290
X16510Y34290
X13970Y34290
X11430Y34290
X8890Y34290
X6350Y34290
X34290Y16510
X36830Y16510
X39370Y16510
X41910Y16510
X44450Y16510
X46990Y16510
X46990Y34290
X44450Y34290
X41910Y34290
X39370Y34290
X36830Y34290
X34290Y34290
T3
X60158Y30480
X55158Y26670
X60158Y22860
X55158Y19050
X60158Y15240
X55158Y11430
X36068Y2580
X32258Y7580
X55158Y41910
X43688Y2580
X39878Y7580
X20320Y48895
X10160Y48895
X60158Y45720
X60158Y38100
X55158Y34290
T4
X45720Y52705
X19050Y29210
X45720Y45085
X31750Y29210
X31750Y21590
X19050Y46355
X19050Y21590
X11430Y46355
X30480Y45085
X30480Y52705
X43180Y52705
X43180Y45085
T5
X35560Y52705
X40640Y52705
X40640Y45085
X38100Y45085
X38100Y52705
X33020Y45085
X35560Y45085
X33020Y52705
T6
X21844Y6858
X19304Y6858
X16764Y6858
T7
X20701Y42672
X26797Y40640
X39370Y38100
X14224Y41783
M30